<?xml version="1.0" encoding="UTF-8"?><svg id="_圖層_1" xmlns="http://www.w3.org/2000/svg" viewBox="0 0 2706 456"><defs><style>.cls-1{fill:none;}</style></defs><g><path class="cls-1" d="M240.63,144.29c-11.05-.02-20.02,7.52-20.02,16.81,0,9.3,9.05,16.97,20,16.93,10.89-.03,20.31-7.92,20.19-16.88-.12-9.08-9.42-16.85-20.17-16.87Z"/><path d="M346.58,193.2c-18.01-25.34-27.17-52.16-22.51-81.75,1.17-7.43-2.69-9.11-10.97-9.09-74.16,.24-148.32,.17-222.47,.12-5.26,0-10.63-.03-15.75-.88-24.55-4.08-34.85-29.34-18.76-45.4,7.85-7.84,18.07-10.33,29.83-10.31,73.54,.1,147.08,.09,220.62,.09,3.4,0,7.55,.63,10.02-.73,3.43-1.89,7.73-5.4,7.72-8.21-.01-2.86-4.34-6.18-7.65-8.39-1.79-1.19-5.39-.61-8.17-.61-76.64,.01-153.28,0-229.93,.12-35.44,.05-55.97,17.42-55.99,47.06-.06,110.41-.17,220.83,.11,331.24,.01,3.98,2.95,8.98,6.49,11.7,5.39,4.15,11.56,.85,15.68-2.65,10.66-9.06,22.14-17.8,30.64-28.2,9.58-11.72,20.92-14.9,37.32-14.62,52.11,.89,104.25,.46,156.38,.27,31.23-.11,54.34-18.73,54.89-43.28,.12-5.37-1.78-7.41-8.4-7.29-16.75,.3-33.51,.19-50.26,.06-19.84-.15-32.76-10.15-32.96-25.3-.2-14.82,13.17-25.17,32.96-25.29,17.07-.11,34.13-.17,51.2,.04,5.71,.07,7.61-1.71,7.49-6.4-.26-10.41,.25-20.84-.1-31.25-.19-5.57,2.45-7.21,8.75-7.02,10.46,.33,20.95,.09,33.64,.09-7.31-12.75-12.56-23.95-19.81-34.14Zm-105.98-15.16c-10.95,.03-20-7.63-20-16.93,0-9.3,8.97-16.83,20.02-16.81,10.75,.02,20.04,7.79,20.17,16.87,.12,8.97-9.3,16.85-20.19,16.88Z"/></g><g><path d="M521.61,329.33c-5.3,0-9.58-1.64-12.87-4.93-3.29-3.29-4.93-7.58-4.93-12.87v-48.74c-9.49,2.56-16.75,4.34-21.77,5.34-5.02,1.01-9.08,.96-12.19-.14-3.29-1.46-6.02-4.29-8.21-8.49-3.29-6.2-3.83-10.95-1.64-14.24,2.19-3.1,6.85-5.29,13.97-6.57,27.38-5.84,52.03-13.6,73.93-23.28-8.95-6.57-17.07-13.42-24.37-20.54-6.94,4.38-13.24,8.13-18.89,11.23-9.31,4.75-16.98,3.83-23-2.74-8.4-9.67-4.38-18.16,12.05-25.47,23-12.23,40.16-26.84,51.48-43.81h-43.27c-4.38,0-6.57,2.19-6.57,6.57v7.94c0,10.59-5.3,15.88-15.88,15.88s-15.88-5.29-15.88-15.88v-26.29c0-5.29,1.64-9.58,4.93-12.87,3.29-3.29,7.57-4.93,12.87-4.93h81.33v-5.75c0-10.95,5.48-16.43,16.43-16.43s16.43,5.48,16.43,16.43v5.75h82.97c5.29,0,9.58,1.64,12.87,4.93,3.29,3.29,4.93,7.58,4.93,12.87v25.74c0,10.95-5.48,16.43-16.43,16.43s-16.7-5.48-16.7-16.43v-7.39c0-4.38-2.19-6.57-6.57-6.57h-106.79l16.7,3.29c4.01,.92,6.48,2.6,7.39,5.07,.91,2.46,0,5.52-2.74,9.17h64.9c6.57,0,10.86,1.96,12.87,5.89,2.01,3.93,1.37,9.54-1.92,16.84-8.21,14.24-20.26,27.38-36.15,39.43,20.99,7.49,43.9,13.14,68.73,16.98,18.07,2.37,22.82,10.23,14.24,23.55-4.93,7.67-12.42,10.68-22.45,9.04-2.92-.36-7.12-1.1-12.6-2.19v50.39c0,5.29-1.64,9.58-4.93,12.87s-7.58,4.93-12.87,4.93h-119.39Zm20.26-26.84h76.95c4.38,0,6.57-2.19,6.57-6.57v-16.7h-90.09v16.7c0,4.38,2.19,6.57,6.57,6.57Zm-5.2-50.11h88.17c-15.16-4.56-30.58-10.68-46.28-18.35-13.69,7.12-27.66,13.24-41.9,18.35Zm41.9-52.85c11.68-7.3,21.63-15.15,29.85-23.55h-60.24l-1.37,1.09c9.49,8.58,20.08,16.07,31.76,22.45Z"/><path d="M829.4,358.36c-9.86-17.89-17.8-36.33-23.82-55.31-7.12-24.28-10.68-49.47-10.68-75.58,0-46.18,11.5-89.82,34.5-130.89,4.2-7.12,10.13-9.04,17.8-5.75,9.13,3.83,11.32,10.23,6.57,19.17-17.53,35.6-26.29,74.76-26.29,117.47s8.76,82.15,26.29,117.75c4.74,8.94,2.55,15.33-6.57,19.17-7.67,3.29-13.6,1.27-17.8-6.02Z"/><path d="M1031.21,304.69c0-.55-.05-1.23-.14-2.05-.09-.82-.23-1.41-.41-1.78-10.04,1.83-25.01,4.57-44.91,8.21-12.96,2.56-22.45,4.38-28.48,5.48-5.11,.91-8.86,.32-11.23-1.78-2.37-2.1-4.02-5.79-4.93-11.09-1.64-10.22,2.1-15.97,11.23-17.25,2.37-.36,5.93-.91,10.68-1.64,8.58-1.09,15.06-2.01,19.44-2.74v-52.3h-18.35c-5.11,0-9.17-1.51-12.19-4.52-3.01-3.01-4.52-7.07-4.52-12.19v-67.91c0-5.29,1.64-9.58,4.93-12.87,3.29-3.29,7.57-4.93,12.87-4.93h17.25v-26.29c0-9.31,4.66-13.97,13.97-13.97s13.97,4.65,13.97,13.97v26.29h18.89c5.29,0,9.45,1.51,12.46,4.52,3.01,3.01,4.52,7.17,4.52,12.46v22.18c9.67-8.39,19.07-19.17,28.21-32.31,8.58-12.23,15.79-24.92,21.63-38.06,1.46-3.47,3.92-6.3,7.39-8.49,3.47-2.19,7.3-3.29,11.5-3.29h3.56c4.01,0,7.71,1.05,11.09,3.15,3.38,2.1,5.98,4.98,7.8,8.63,13.69,26.66,29.21,47.65,46.55,62.98,4.93,3.83,7.76,7.58,8.49,11.23,.73,3.65-.46,8.22-3.56,13.69-3.29,5.85-6.85,8.95-10.68,9.31-3.83,.37-8.31-1.73-13.42-6.3-2.19-2.19-3.83-3.92-4.93-5.2v11.5c0,2.92-.87,5.25-2.6,6.98s-4.06,2.6-6.98,2.6h-56.41c-5.3,0-9.58-1.64-12.87-4.93-3.29-3.29-4.93-7.57-4.93-12.87v-3.29c-3.47,3.83-7.12,7.49-10.95,10.95-2.92,2.37-5.75,3.24-8.49,2.6-2.74-.64-4.84-2.69-6.3-6.16-1.83-3.29-3.2-5.66-4.11-7.12v29.85c0,5.3-1.64,9.58-4.93,12.87s-7.58,4.93-12.87,4.93h-18.35v47.65l15.33-2.19c-1.83-7.3-3.2-12.69-4.11-16.16-2.37-7.3,.36-12.05,8.21-14.24,7.3-2.19,12.23,.27,14.79,7.39,5.66,17.35,9.67,34.6,12.05,51.75,.91,6.39-2.19,10.68-9.31,12.87-9.49,2.92-14.79-.46-15.88-10.13Zm-52.85-102.96h6.85v-50.39h-7.67c-3.83,0-5.75,1.92-5.75,5.75v38.06c0,4.38,2.19,6.57,6.57,6.57Zm28.75,0h8.21c4.38,0,6.57-2.19,6.57-6.57v-37.24c0-4.38-2.19-6.57-6.57-6.57h-8.21v50.39Zm72.84,124.05c-5.3,0-9.58-1.64-12.87-4.93-3.29-3.29-4.93-7.57-4.93-12.87v-68.46c0-5.29,1.64-9.58,4.93-12.87s7.57-4.93,12.87-4.93h78.59c5.29,0,9.58,1.64,12.87,4.93,3.29,3.29,4.93,7.58,4.93,12.87v68.46c0,5.3-1.64,9.58-4.93,12.87s-7.58,4.93-12.87,4.93h-78.59Zm2.19-153.07h64.9c4.38,0,5.11-1.73,2.19-5.2-12.78-15.88-23.46-32.77-32.04-50.66-8.76,19.9-20.45,38.52-35.05,55.86Zm15.33,124.05h41.9c4.38,0,6.57-2.19,6.57-6.57v-32.86c0-4.38-2.19-6.57-6.57-6.57h-41.9c-4.38,0-6.57,2.19-6.57,6.57v32.86c0,4.38,2.19,6.57,6.57,6.57Z"/><path d="M1286.42,364.38c-8.95-4.02-11.23-10.32-6.85-18.89,17.7-35.41,26.56-74.76,26.56-118.02s-8.86-82.33-26.56-117.75c-4.57-8.76-2.38-15.06,6.57-18.89,7.67-3.47,13.6-1.55,17.8,5.75,23.18,40.71,34.78,84.34,34.78,130.89,0,26.11-3.56,51.3-10.68,75.58-6.02,19.35-14.06,37.88-24.1,55.59-4.2,7.12-10.04,9.04-17.53,5.75Z"/><path d="M1590.09,337c-10.04,0-15.06-5.02-15.06-15.06V193.51c-2.19,2.92-3.83,5.02-4.93,6.3-5.3,6.21-9.86,9.22-13.69,9.04-4.2,0-8.04-3.47-11.5-10.41-2.56-4.93-3.61-9.22-3.15-12.87,.45-3.65,2.6-7.48,6.43-11.5,18.44-21.54,34.14-47.37,47.1-77.49,3.65-9.31,10.31-12.41,19.99-9.31,10.04,3.11,13.14,9.31,9.31,18.62-5.66,13.33-12.14,26.66-19.44,39.98v176.07c0,10.04-5.02,15.06-15.06,15.06Zm28.75-50.39c-4.38-10.41-.92-17.16,10.41-20.26,.18-.18,.5-.32,.96-.41,.45-.09,.77-.14,.96-.14V125.33c0-3.65,1.05-6.3,3.15-7.94,2.1-1.64,4.97-2.01,8.63-1.1l.82,.27c10.41-7.3,19.99-15.24,28.75-23.82,3.47-3.83,6.94-5.93,10.41-6.3,3.47-.36,7.48,.82,12.05,3.56,5.84,3.47,8.85,7.03,9.04,10.68,.18,3.65-2.37,7.67-7.67,12.05-11.69,8.76-23.46,16.52-35.32,23.28v121.58c1.82-.55,4.56-1.32,8.22-2.33,3.65-1,6.39-1.78,8.21-2.33,10.22-2.92,16.25,.82,18.07,11.23,1.46,8.95-2.19,14.79-10.95,17.53-4.38,1.28-10.95,3.29-19.72,6.02-12.42,4.02-21.54,6.85-27.38,8.49-8.58,2.56-14.79-.64-18.62-9.58Zm95.29,51.21c-10.23,0-15.33-5.02-15.33-15.06V129.16c0-5.29,1.64-9.58,4.93-12.87,3.29-3.29,7.57-4.93,12.87-4.93h56.96c5.29,0,9.58,1.64,12.87,4.93,3.29,3.29,4.93,7.58,4.93,12.87v129.8c0,7.67-.73,13.51-2.19,17.53-1.64,4.93-4.57,8.67-8.76,11.23-4.75,2.92-10.86,4.66-18.35,5.2-11.69,.37-18.72-4.01-21.09-13.14-2.74-11.86,2.46-17.61,15.61-17.25,2.55,0,3.83-1.46,3.83-4.38v-111.72c0-4.38-2.19-6.57-6.57-6.57h-18.07c-4.38,0-6.57,2.19-6.57,6.57v176.35c0,10.04-5.02,15.06-15.06,15.06Z"/><path d="M1933.75,327.14c-2.74-10.04,1.92-14.88,13.97-14.51h1.92c2.74,0,4.11-1.46,4.11-4.38v-85.98l-38.61,4.11c-.73,43.27-6.12,76.31-16.16,99.13-2.19,4.38-4.61,6.94-7.26,7.67-2.65,.73-5.98-.27-10-3.01-3.83-2.56-6.07-5.3-6.71-8.22-.64-2.92,.04-6.48,2.05-10.68,7.85-18.44,12.14-45.73,12.87-81.88l-2.74,.27c-8.58,.92-13.42-2.92-14.51-11.5-1.1-8.76,2.83-13.51,11.77-14.24l5.48-.55v-66.54c0-5.29,1.64-9.58,4.93-12.87,3.29-3.29,7.57-4.93,12.87-4.93h6.85c1.82-7.12,3.38-13.78,4.66-19.99,.91-6.02,2.83-10.17,5.75-12.46,2.92-2.28,7.39-2.97,13.42-2.05,12.05,2.01,15.7,9.31,10.95,21.91-.73,1.64-1.74,4.02-3.01,7.12-.92,2.56-1.64,4.38-2.19,5.48h18.62c5.29,0,9.45,1.51,12.46,4.52,3.01,3.01,4.52,7.17,4.52,12.46v58.33h.55c6.94-.73,10.58,2.83,10.95,10.68,.36,8.76-3.29,13.51-10.95,14.24h-.55v89.54c0,6.57-.64,11.59-1.92,15.06-1.46,3.83-4.02,6.85-7.67,9.04-4.93,2.55-11.14,4.11-18.62,4.66-9.86,.36-15.79-3.11-17.8-10.41Zm-18.62-126.24c6.57-.55,16.7-1.55,30.39-3.01,3.65-.36,6.39-.64,8.22-.82v-46.28c0-4.38-2.19-6.57-6.57-6.57h-25.47c-4.38,0-6.57,2.19-6.57,6.57v50.11Zm12.32-20.26c-.18-.55-.46-1.32-.82-2.33-.37-1-.64-1.78-.82-2.33-.55-1.82-1.55-4.56-3.01-8.22-3.29-6.39-1.55-10.95,5.2-13.69,5.66-2.19,9.9-.77,12.73,4.24,2.83,5.02,5.43,11,7.8,17.94,1.1,5.48-1.19,9.4-6.85,11.77-7.67,3.11-12.42,.64-14.24-7.39Zm6.02,111.72c-6.21,0-9.31-3.01-9.31-9.04v-44.36c0-6.02,3.1-9.04,9.31-9.04s9.04,3.01,9.04,9.04v44.36c0,6.02-3.01,9.04-9.04,9.04Zm58.6,33.96c-3.47-5.66-4.29-10.32-2.46-13.97,1.64-3.47,5.75-6.39,12.32-8.76,10.95-4.75,21.17-10.77,30.67-18.07-7.49-9.67-14.24-21.36-20.26-35.05-2.37-5.84-2.56-10.77-.55-14.79,2.01-4.01,5.93-6.75,11.77-8.21l6.3-1.37h-18.89c-9.49,0-14.24-5.38-14.24-16.16,0-3.65,.96-6.62,2.87-8.9,1.92-2.28,4.61-3.42,8.08-3.42h.55c-3.11-3.29-7.03-6.66-11.78-10.13-7.12-5.29-7.03-11.78,.27-19.44,6.75-9.67,10.13-23.18,10.13-40.53v-18.62c0-5.29,1.55-9.45,4.65-12.46,3.1-3.01,7.21-4.52,12.32-4.52h51.48c5.29,0,9.58,1.64,12.87,4.93,3.29,3.29,4.93,7.58,4.93,12.87v46.28c0,2.74,.09,4.29,.27,4.65,.55,.92,1.37,1.37,2.46,1.37h4.38c1.64,0,2.83-.36,3.56-1.1,.91-.55,1.64-2.46,2.19-5.75,0-.18,.04-.59,.14-1.23,.09-.64,.14-1.14,.14-1.51,.55-13.32,5.66-17.43,15.33-12.32,5.66,2.74,8.12,8.49,7.39,17.25-.92,7.85-1.83,12.96-2.74,15.33-2.01,5.48-5.02,9.13-9.04,10.95-3.83,2.19-8.76,3.29-14.79,3.29h-13.97c-7.85,0-13.97-2.28-18.35-6.85-2.19-2.37-3.74-5.38-4.65-9.04-.92-4.01-1.37-10.13-1.37-18.35v-26.01c0-4.38-2.19-6.57-6.57-6.57h-15.61c-4.38,0-6.57,2.19-6.57,6.57v1.64c0,28.85-7.03,50.3-21.09,64.35-3.47,3.29-3.11,4.93,1.1,4.93h80.51c6.2,0,10.58,1.92,13.14,5.75,2.55,3.83,2.92,9.59,1.1,17.25-7.49,26.66-18.89,48.84-34.23,66.54,9.31,6.57,19.62,12.14,30.94,16.7,7.67,2.37,12.41,5.3,14.24,8.76,2.19,3.83,1.19,8.67-3.01,14.51-4.93,7.12-12.23,9.04-21.91,5.75-16.07-6.21-30.12-14.42-42.17-24.65-10.95,8.94-24.28,16.88-39.98,23.82-9.68,4.01-16.98,2.1-21.91-5.75Zm61.06-60.24c10.04-11.5,17.98-24.82,23.82-39.98h-39.43c-4.38,0-5.75,2.1-4.11,6.3,5.48,12.96,12.05,24.19,19.72,33.68Z"/><path d="M2214.15,154.08c-8.58,0-12.87-4.29-12.87-12.87s4.29-12.87,12.87-12.87h67.91c8.58,0,12.87,4.29,12.87,12.87s-4.29,12.87-12.87,12.87h-67.91Zm15.61,172.79c-5.3,0-9.58-1.64-12.87-4.93s-4.93-7.58-4.93-12.87v-47.1c0-5.29,1.64-9.58,4.93-12.87,3.29-3.29,7.57-4.93,12.87-4.93h40.25c5.29,0,9.58,1.64,12.87,4.93,3.29,3.29,4.93,7.58,4.93,12.87v47.1c0,5.29-1.64,9.58-4.93,12.87-3.29,3.29-7.58,4.93-12.87,4.93h-40.25Zm-4.93-135c-8.04,0-12.05-4.11-12.05-12.32s4.01-12.05,12.05-12.05h50.38c8.03,0,12.05,4.02,12.05,12.05s-4.02,12.32-12.05,12.32h-50.38Zm.27,38.34c-8.22,0-12.32-4.11-12.32-12.32s4.11-12.32,12.32-12.32h49.84c8.22,0,12.32,4.11,12.32,12.32s-4.11,12.32-12.32,12.32h-49.84Zm1.64-115.01c-8.21,0-12.32-4.11-12.32-12.32s4.11-12.32,12.32-12.32h47.37c8.22,0,12.32,4.11,12.32,12.32s-4.11,12.32-12.32,12.32h-47.37Zm18.35,185.93h9.31c4.38,0,6.57-2.19,6.57-6.57v-18.07c0-4.38-2.19-6.57-6.57-6.57h-9.31c-4.38,0-6.57,2.19-6.57,6.57v18.07c0,4.38,2.19,6.57,6.57,6.57Zm141.57,26.29c-2.92-9.86,2.28-14.6,15.61-14.24h5.75c3.1-.18,4.65-1.64,4.65-4.38v-10.95h-77.22v26.56c0,8.94-4.48,13.42-13.42,13.42s-13.69-4.48-13.69-13.42v-26.56h-.82c-8.58,0-12.87-4.29-12.87-12.87s4.29-12.87,12.87-12.87h.82v-50.39c0-5.29,1.64-9.58,4.93-12.87,3.29-3.29,7.57-4.93,12.87-4.93h34.78v-9.86h-53.4c-8.22,0-12.32-4.11-12.32-12.32s4.11-12.32,12.32-12.32h23v-11.77h-12.05c-7.49,0-11.23-3.74-11.23-11.23s3.74-11.23,11.23-11.23h12.05v-10.95h-16.7c-7.67,0-11.5-3.83-11.5-11.5s3.83-11.5,11.5-11.5h16.7v-4.93c0-9.49,4.83-14.24,14.51-14.24s14.24,4.75,14.24,14.24v4.93h31.49v-4.66c0-9.67,4.83-14.51,14.51-14.51s14.51,4.84,14.51,14.51v4.66h18.62c7.67,0,11.5,3.83,11.5,11.5s-3.83,11.5-11.5,11.5h-18.62v10.95h13.42c7.48,0,11.23,3.74,11.23,11.23s-3.74,11.23-11.23,11.23h-13.42v11.77h22.73c8.21,0,12.32,4.11,12.32,12.32s-4.11,12.32-12.32,12.32h-55.04v9.86h36.69c5.29,0,9.58,1.64,12.87,4.93,3.29,3.29,4.93,7.58,4.93,12.87v50.39h.55c8.58,0,12.87,4.29,12.87,12.87s-4.29,12.87-12.87,12.87h-.55v11.23c0,6.94-.87,12.23-2.6,15.88-1.74,3.65-4.89,6.48-9.45,8.49-5.3,2.37-13.69,3.74-25.19,4.11-10.04,.36-16.07-3.01-18.07-10.13Zm-51.21-88.17h25.47v-12.87h-18.89c-4.38,0-6.57,2.19-6.57,6.57v6.3Zm0,32.86h25.47v-12.87h-25.47v12.87Zm23.82-136.92h31.49v-10.95h-31.49v10.95Zm0,34.23h31.49v-11.77h-31.49v11.77Zm28.21,69.83h25.19v-7.39c0-3.65-1.83-5.48-5.48-5.48h-19.72v12.87Zm0,32.86h25.19v-12.87h-25.19v12.87Z"/><path d="M2608.74,243.62c-5.11,0-8.95-1.82-11.5-5.48-2.37-3.47-3.29-8.03-2.74-13.69,2.19-6.02,6.11-11.86,11.77-17.53,3.29-3.47,8.72-8.12,16.29-13.97,7.57-5.84,12.73-10.31,15.47-13.42,4.56-5.11,6.85-10.22,6.85-15.33,0-8.21-3.06-14.56-9.17-19.03-6.12-4.47-14.56-6.71-25.33-6.71-11.32,0-21.73,3.38-31.22,10.13-8.58,7.67-16.61,7.94-24.1,.82-7.3-6.75-7.39-13.78-.27-21.08,17.34-14.97,37.33-22.45,59.97-22.45,20.63,0,37.06,4.57,49.29,13.69,12.96,9.68,19.44,23.37,19.44,41.07,0,8.95-3.11,17.07-9.31,24.37-3.65,4.57-10.32,10.5-19.99,17.8-11.5,8.76-18.99,16.07-22.45,21.91-2.56,12.6-10.23,18.89-23,18.89Zm1.64,72.84c-8.4,0-15.15-2.55-20.26-7.67-5.48-4.93-8.21-11.36-8.21-19.31s2.69-14.42,8.08-19.44c5.38-5.02,12.19-7.53,20.4-7.53s15.01,2.51,20.4,7.53c5.38,5.02,8.08,11.46,8.08,19.31s-2.7,14.33-8.08,19.44c-5.39,5.11-12.19,7.67-20.4,7.67Z"/></g></svg>